<svg xmlns="http://www.w3.org/2000/svg" viewBox="0 0 279 51" preserveAspectRatio="xMidYMid meet"><title>Classmoji</title><defs><radialGradient id="cmAppleBody" cx="38%" cy="32%" r="78%"><stop offset="0%" stop-color="#ff9b9b"/><stop offset="22%" stop-color="#f0322e"/><stop offset="65%" stop-color="#b81620"/><stop offset="100%" stop-color="#5a070c"/></radialGradient><radialGradient id="cmAppleShine" cx="32%" cy="22%" r="22%"><stop offset="0%" stop-color="#fff" stop-opacity="0.95"/><stop offset="100%" stop-color="#fff" stop-opacity="0"/></radialGradient><linearGradient id="cmLeaf" x1="0%" y1="0%" x2="100%" y2="100%"><stop offset="0%" stop-color="#86dc64"/><stop offset="55%" stop-color="#3aa53a"/><stop offset="100%" stop-color="#1a6b1a"/></linearGradient><linearGradient id="cmStem" x1="0%" y1="0%" x2="0%" y2="100%"><stop offset="0%" stop-color="#5a3a1f"/><stop offset="100%" stop-color="#2a180a"/></linearGradient></defs><g shape-rendering="geometricPrecision"><path d="M 180.0 30.5 C 180.0 12.583000000000002 187.875 10.1312 194.35 15.7892 C 196.45 16.9208 198.55 16.9208 200.65 15.7892 C 207.125 10.1312 215.0 12.583000000000002 215.0 30.5 C 215.0 47.8512 206.25 52.18899999999999 197.5 50.8688 C 188.75 52.18899999999999 180.0 47.8512 180.0 30.5 Z" fill="url(#cmAppleBody)"/><ellipse cx="190.85" cy="22.012999999999998" rx="5.25" ry="4.1491999999999996" fill="url(#cmAppleShine)"/><path d="M 196.5 15.7892 C 196.0 10.64 197.5 8.64 199.1 8.14 L 200.1 9.040000000000001 C 198.7 10.24 198.3 13.64 198.7 15.7892 Z" fill="url(#cmStem)"/><path d="M 199.25 13.148800000000001 C 202.4 5.981999999999999 210.1 5.604800000000001 212.9 10.697 C 208.875 13.148800000000001 203.625 15.411999999999999 199.25 13.148800000000001 Z" fill="url(#cmLeaf)"/><path d="M 199.95 12.394400000000001 L 210.1 8.2452" stroke="#0e3d0e" stroke-width="0.6" stroke-linecap="round" fill="none" opacity="0.55"/></g><g fill="currentColor" shape-rendering="crispEdges"><rect x="5" y="12" width="4" height="4"/><rect x="10" y="12" width="4" height="4"/><rect x="15" y="12" width="4" height="4"/><rect x="0" y="17" width="4" height="4"/><rect x="20" y="17" width="4" height="4"/><rect x="0" y="22" width="4" height="4"/><rect x="0" y="27" width="4" height="4"/><rect x="0" y="32" width="4" height="4"/><rect x="0" y="37" width="4" height="4"/><rect x="20" y="37" width="4" height="4"/><rect x="5" y="42" width="4" height="4"/><rect x="10" y="42" width="4" height="4"/><rect x="15" y="42" width="4" height="4"/><rect x="30" y="12" width="4" height="4"/><rect x="30" y="17" width="4" height="4"/><rect x="30" y="22" width="4" height="4"/><rect x="30" y="27" width="4" height="4"/><rect x="30" y="32" width="4" height="4"/><rect x="30" y="37" width="4" height="4"/><rect x="30" y="42" width="4" height="4"/><rect x="35" y="42" width="4" height="4"/><rect x="40" y="42" width="4" height="4"/><rect x="45" y="42" width="4" height="4"/><rect x="50" y="42" width="4" height="4"/><rect x="65" y="12" width="4" height="4"/><rect x="70" y="12" width="4" height="4"/><rect x="75" y="12" width="4" height="4"/><rect x="60" y="17" width="4" height="4"/><rect x="80" y="17" width="4" height="4"/><rect x="60" y="22" width="4" height="4"/><rect x="80" y="22" width="4" height="4"/><rect x="60" y="27" width="4" height="4"/><rect x="65" y="27" width="4" height="4"/><rect x="70" y="27" width="4" height="4"/><rect x="75" y="27" width="4" height="4"/><rect x="80" y="27" width="4" height="4"/><rect x="60" y="32" width="4" height="4"/><rect x="80" y="32" width="4" height="4"/><rect x="60" y="37" width="4" height="4"/><rect x="80" y="37" width="4" height="4"/><rect x="60" y="42" width="4" height="4"/><rect x="80" y="42" width="4" height="4"/><rect x="95" y="12" width="4" height="4"/><rect x="100" y="12" width="4" height="4"/><rect x="105" y="12" width="4" height="4"/><rect x="110" y="12" width="4" height="4"/><rect x="90" y="17" width="4" height="4"/><rect x="90" y="22" width="4" height="4"/><rect x="95" y="27" width="4" height="4"/><rect x="100" y="27" width="4" height="4"/><rect x="105" y="27" width="4" height="4"/><rect x="110" y="32" width="4" height="4"/><rect x="110" y="37" width="4" height="4"/><rect x="90" y="42" width="4" height="4"/><rect x="95" y="42" width="4" height="4"/><rect x="100" y="42" width="4" height="4"/><rect x="105" y="42" width="4" height="4"/><rect x="125" y="12" width="4" height="4"/><rect x="130" y="12" width="4" height="4"/><rect x="135" y="12" width="4" height="4"/><rect x="140" y="12" width="4" height="4"/><rect x="120" y="17" width="4" height="4"/><rect x="120" y="22" width="4" height="4"/><rect x="125" y="27" width="4" height="4"/><rect x="130" y="27" width="4" height="4"/><rect x="135" y="27" width="4" height="4"/><rect x="140" y="32" width="4" height="4"/><rect x="140" y="37" width="4" height="4"/><rect x="120" y="42" width="4" height="4"/><rect x="125" y="42" width="4" height="4"/><rect x="130" y="42" width="4" height="4"/><rect x="135" y="42" width="4" height="4"/><rect x="150" y="12" width="4" height="4"/><rect x="170" y="12" width="4" height="4"/><rect x="150" y="17" width="4" height="4"/><rect x="155" y="17" width="4" height="4"/><rect x="165" y="17" width="4" height="4"/><rect x="170" y="17" width="4" height="4"/><rect x="150" y="22" width="4" height="4"/><rect x="160" y="22" width="4" height="4"/><rect x="170" y="22" width="4" height="4"/><rect x="150" y="27" width="4" height="4"/><rect x="160" y="27" width="4" height="4"/><rect x="170" y="27" width="4" height="4"/><rect x="150" y="32" width="4" height="4"/><rect x="170" y="32" width="4" height="4"/><rect x="150" y="37" width="4" height="4"/><rect x="170" y="37" width="4" height="4"/><rect x="150" y="42" width="4" height="4"/><rect x="170" y="42" width="4" height="4"/><rect x="230" y="12" width="4" height="4"/><rect x="235" y="12" width="4" height="4"/><rect x="240" y="12" width="4" height="4"/><rect x="240" y="17" width="4" height="4"/><rect x="240" y="22" width="4" height="4"/><rect x="240" y="27" width="4" height="4"/><rect x="240" y="32" width="4" height="4"/><rect x="220" y="37" width="4" height="4"/><rect x="240" y="37" width="4" height="4"/><rect x="225" y="42" width="4" height="4"/><rect x="230" y="42" width="4" height="4"/><rect x="235" y="42" width="4" height="4"/><rect x="250" y="12" width="4" height="4"/><rect x="255" y="12" width="4" height="4"/><rect x="260" y="12" width="4" height="4"/><rect x="265" y="12" width="4" height="4"/><rect x="270" y="12" width="4" height="4"/><rect x="260" y="17" width="4" height="4"/><rect x="260" y="22" width="4" height="4"/><rect x="260" y="27" width="4" height="4"/><rect x="260" y="32" width="4" height="4"/><rect x="260" y="37" width="4" height="4"/><rect x="250" y="42" width="4" height="4"/><rect x="255" y="42" width="4" height="4"/><rect x="260" y="42" width="4" height="4"/><rect x="265" y="42" width="4" height="4"/><rect x="270" y="42" width="4" height="4"/></g></svg>